<svg width="37" height="37" viewBox="0 0 37 37" fill="none" xmlns="http://www.w3.org/2000/svg">
<g clip-path="url(#clip0_138_2066)">
<path d="M26.9792 15.4167V26.2083L18.5 30.0625V19.2708L26.9792 15.4167Z" fill="#FC6459"/>
<path d="M26.9792 15.4167L18.5 19.2708L10.0208 15.4167L18.5 11.5625L26.9792 15.4167Z" fill="#BFBFBF"/>
<path d="M17.5056 5.94313L17.7292 5.71188V6.9375C17.7292 7.14194 17.8104 7.338 17.9549 7.48256C18.0995 7.62712 18.2956 7.70833 18.5 7.70833C18.7044 7.70833 18.9005 7.62712 19.0451 7.48256C19.1896 7.338 19.2708 7.14194 19.2708 6.9375V5.71188L19.4944 5.94313C19.6395 6.08828 19.8364 6.16982 20.0417 6.16982C20.247 6.16982 20.4438 6.08828 20.589 5.94313C20.7341 5.79797 20.8157 5.60111 20.8157 5.39583C20.8157 5.19056 20.7341 4.99369 20.589 4.84854L19.0473 3.30688C18.9389 3.19992 18.8013 3.12746 18.6517 3.09865C18.5022 3.06984 18.3475 3.08597 18.2071 3.145C18.0067 3.22208 18.0761 3.145 16.4111 4.84854C16.2659 4.99369 16.1844 5.19056 16.1844 5.39583C16.1844 5.60111 16.2659 5.79797 16.4111 5.94313C16.5562 6.08828 16.7531 6.16982 16.9583 6.16982C17.1636 6.16982 17.3605 6.08828 17.5056 5.94313Z" fill="#424242"/>
<path d="M7.43082 27.0794L6.37478 27.696L6.45957 27.3877C6.4864 27.29 6.49372 27.188 6.48112 27.0875C6.46852 26.987 6.43625 26.8899 6.38614 26.8019C6.33604 26.7139 6.26908 26.6365 6.1891 26.5744C6.10912 26.5122 6.01767 26.4664 5.91999 26.4396C5.8223 26.4128 5.72029 26.4054 5.61978 26.418C5.51926 26.4306 5.42222 26.4629 5.33417 26.513C5.24613 26.5631 5.16882 26.6301 5.10666 26.7101C5.04449 26.79 4.99869 26.8815 4.97186 26.9792C4.39374 29.1221 4.2704 29.2917 4.47853 29.6694C4.58944 29.8402 4.75532 29.968 4.94874 30.0317C5.70323 30.2866 6.47639 30.4824 7.26124 30.6175C7.46568 30.6441 7.6723 30.5884 7.83565 30.4626C7.999 30.3368 8.1057 30.1513 8.13228 29.9469C8.15886 29.7424 8.10313 29.5358 7.97736 29.3725C7.8516 29.2091 7.66609 29.1024 7.46165 29.0758L7.15332 28.991L8.20936 28.3821C8.38722 28.2799 8.51719 28.1112 8.57068 27.9131C8.62417 27.7151 8.59679 27.5039 8.49457 27.326C8.39235 27.1482 8.22366 27.0182 8.02562 26.9647C7.82757 26.9112 7.61639 26.9386 7.43853 27.0408L7.43082 27.0794Z" fill="#424242"/>
<path d="M32.0589 30.0625C32.2493 30.0009 32.4126 29.8757 32.5214 29.7079C32.7219 29.361 32.6525 29.3456 32.0281 27.0177C32.0046 26.917 31.9611 26.822 31.9002 26.7384C31.8392 26.6548 31.762 26.5843 31.6733 26.5312C31.5845 26.4781 31.486 26.4434 31.3835 26.4291C31.281 26.4149 31.1767 26.4214 31.0769 26.4483C30.977 26.4752 30.8835 26.522 30.8021 26.5858C30.7206 26.6496 30.6529 26.7291 30.6028 26.8196C30.5527 26.9102 30.5214 27.0098 30.5107 27.1127C30.5 27.2156 30.5101 27.3196 30.5404 27.4185L30.6252 27.7269L29.5692 27.1102C29.3913 27.008 29.1801 26.9806 28.9821 27.0341C28.784 27.0876 28.6153 27.2176 28.5131 27.3954C28.4109 27.5733 28.3835 27.7845 28.437 27.9825C28.4905 28.1805 28.6205 28.3492 28.7983 28.4515L29.8544 29.0604L29.546 29.1452C29.4453 29.1687 29.3503 29.2122 29.2667 29.2732C29.1831 29.3341 29.1127 29.4113 29.0595 29.5C29.0064 29.5888 28.9717 29.6874 28.9574 29.7898C28.9432 29.8923 28.9497 29.9966 28.9766 30.0965C29.0036 30.1964 29.0503 30.2898 29.1141 30.3712C29.1779 30.4527 29.2574 30.5205 29.3479 30.5705C29.4385 30.6206 29.5382 30.6519 29.6411 30.6626C29.744 30.6733 29.848 30.6632 29.9469 30.6329L32.0589 30.0625Z" fill="#424242"/>
<path d="M0.770833 6.16667C0.975271 6.16667 1.17134 6.08545 1.31589 5.94089C1.46045 5.79634 1.54167 5.60027 1.54167 5.39583V1.54167H5.39583C5.60027 1.54167 5.79634 1.46045 5.94089 1.31589C6.08545 1.17134 6.16667 0.975271 6.16667 0.770833C6.16667 0.566396 6.08545 0.370331 5.94089 0.225772C5.79634 0.0812126 5.60027 0 5.39583 0L0.770833 0C0.566396 0 0.370331 0.0812126 0.225772 0.225772C0.0812126 0.370331 0 0.566396 0 0.770833L0 5.39583C0 5.60027 0.0812126 5.79634 0.225772 5.94089C0.370331 6.08545 0.566396 6.16667 0.770833 6.16667Z" fill="#424242"/>
<path d="M5.39583 35.4583H1.54167V31.6042C1.54167 31.3997 1.46045 31.2037 1.31589 31.0591C1.17134 30.9145 0.975271 30.8333 0.770833 30.8333C0.566396 30.8333 0.370331 30.9145 0.225772 31.0591C0.0812126 31.2037 0 31.3997 0 31.6042L0 36.2292C0 36.4336 0.0812126 36.6297 0.225772 36.7742C0.370331 36.9188 0.566396 37 0.770833 37H5.39583C5.60027 37 5.79634 36.9188 5.94089 36.7742C6.08545 36.6297 6.16667 36.4336 6.16667 36.2292C6.16667 36.0247 6.08545 35.8287 5.94089 35.6841C5.79634 35.5395 5.60027 35.4583 5.39583 35.4583Z" fill="#424242"/>
<path d="M36.2292 30.8333C36.0247 30.8333 35.8287 30.9145 35.6841 31.0591C35.5396 31.2037 35.4583 31.3997 35.4583 31.6042V35.4583H31.6042C31.3997 35.4583 31.2037 35.5395 31.0591 35.6841C30.9146 35.8287 30.8333 36.0247 30.8333 36.2292C30.8333 36.4336 30.9146 36.6297 31.0591 36.7742C31.2037 36.9188 31.3997 37 31.6042 37H36.2292C36.4336 37 36.6297 36.9188 36.7742 36.7742C36.9188 36.6297 37 36.4336 37 36.2292V31.6042C37 31.3997 36.9188 31.2037 36.7742 31.0591C36.6297 30.9145 36.4336 30.8333 36.2292 30.8333Z" fill="#424242"/>
<path d="M36.2292 0H31.6042C31.3997 0 31.2037 0.0812126 31.0591 0.225772C30.9146 0.370331 30.8333 0.566396 30.8333 0.770833C30.8333 0.975271 30.9146 1.17134 31.0591 1.31589C31.2037 1.46045 31.3997 1.54167 31.6042 1.54167H35.4583V5.39583C35.4583 5.60027 35.5396 5.79634 35.6841 5.94089C35.8287 6.08545 36.0247 6.16667 36.2292 6.16667C36.4336 6.16667 36.6297 6.08545 36.7742 5.94089C36.9188 5.79634 37 5.60027 37 5.39583V0.770833C37 0.566396 36.9188 0.370331 36.7742 0.225772C36.6297 0.0812126 36.4336 0 36.2292 0Z" fill="#424242"/>
<path d="M27.2798 14.7075C27.2027 14.7075 28.1508 15.1006 19.2708 11.0692V10.0208C19.2708 9.8164 19.1896 9.62033 19.0451 9.47577C18.9005 9.33121 18.7044 9.25 18.5 9.25C18.2956 9.25 18.0995 9.33121 17.9549 9.47577C17.8104 9.62033 17.7292 9.8164 17.7292 10.0208V11.0692C9.34249 14.8771 9.55061 14.6458 9.33478 15.0775C9.28409 15.1837 9.25525 15.2991 9.24999 15.4167C9.24999 26.694 9.11124 26.5321 9.61228 26.8481C10.1133 27.1642 8.54853 26.3856 18.1839 30.764C18.2833 30.8086 18.391 30.8317 18.5 30.8317C18.6089 30.8317 18.7167 30.8086 18.816 30.764C28.0044 26.5937 27.4262 26.9098 27.6189 26.6169C27.8117 26.324 27.75 27.2335 27.75 15.4167C27.7499 15.2654 27.7052 15.1174 27.6216 14.9913C27.538 14.8652 27.4191 14.7665 27.2798 14.7075ZM17.7292 12.7573V13.1042C17.7292 13.3086 17.8104 13.5047 17.9549 13.6492C18.0995 13.7938 18.2956 13.875 18.5 13.875C18.7044 13.875 18.9005 13.7938 19.0451 13.6492C19.1896 13.5047 19.2708 13.3086 19.2708 13.1042V12.7573L25.1137 15.4167L19.2708 18.076V16.1875C19.2708 15.9831 19.1896 15.787 19.0451 15.6424C18.9005 15.4979 18.7044 15.4167 18.5 15.4167C18.2956 15.4167 18.0995 15.4979 17.9549 15.6424C17.8104 15.787 17.7292 15.9831 17.7292 16.1875V18.076L11.8862 15.4167L17.7292 12.7573ZM11.9633 26.2469L13.5435 25.3373C13.7214 25.2351 13.8514 25.0664 13.9048 24.8683C13.9583 24.6703 13.931 24.4591 13.8287 24.2812C13.7265 24.1034 13.5578 23.9734 13.3598 23.9199C13.1617 23.8664 12.9506 23.8938 12.7727 23.996L10.7917 25.1446V16.6115L17.7292 19.7642V21.1362L15.4167 22.4544C15.2682 22.5385 15.1518 22.6696 15.0858 22.827C15.0198 22.9844 15.0079 23.1592 15.052 23.3241C15.0961 23.489 15.1937 23.6346 15.3294 23.7381C15.4652 23.8415 15.6314 23.897 15.8021 23.8958C16.0719 23.8958 16.0487 23.8958 17.6983 22.9169V28.8677L11.9633 26.2469ZM19.2708 22.9169C20.905 23.8958 20.8973 23.8958 21.1671 23.8958C21.3377 23.897 21.504 23.8415 21.6397 23.7381C21.7755 23.6346 21.873 23.489 21.9171 23.3241C21.9612 23.1592 21.9493 22.9844 21.8833 22.827C21.8174 22.6696 21.701 22.5385 21.5525 22.4544L19.24 21.1362V19.7642L26.1775 16.6115V25.1446L24.1964 23.996C24.0186 23.8938 23.8074 23.8664 23.6094 23.9199C23.4113 23.9734 23.2426 24.1034 23.1404 24.2812C23.0382 24.4591 23.0108 24.6703 23.0643 24.8683C23.1178 25.0664 23.2478 25.2351 23.4256 25.3373L24.9673 26.2469L19.2708 28.8677V22.9169Z" fill="#424242"/>
</g>
<defs>
<clipPath id="clip0_138_2066">
<rect width="37" height="37" fill="white"/>
</clipPath>
</defs>
</svg>
