<svg xmlns="http://www.w3.org/2000/svg" xmlns:xlink="http://www.w3.org/1999/xlink" width="18" height="18"
     viewBox="0 0 18 18">
    <defs>
        <path id="l589a"
              d="M245.49 23.95c0-.06.03-.12.07-.17.85-1.07 2.2-1.7 4.01-1.7h4.85c1.8 0 3.16.63 4.01 1.7.04.05.07.1.07.17a7.6 7.6 0 0 1-13.01 0zm3.05-6.72a3.46 3.46 0 1 1 6.92 0 3.46 3.46 0 0 1-6.92 0zM252 29a9 9 0 1 0 0-18 9 9 0 0 0 0 18z"/>
    </defs>
    <g>
        <g transform="translate(-243 -11)">
            <use fill="#00979d" xlink:href="#l589a"/>
        </g>
    </g>
</svg>
