<svg xmlns="http://www.w3.org/2000/svg" width="18" height="18" viewBox="0 0 18 18">
    <path fill="#00979d"
          d="M1297.0003,21.2498 C1297.41451,21.2498 1297.7503,21.5855864 1297.7503,21.9998 C1297.7503,22.3794958 1297.46815,22.693291 1297.10207,22.7429534 L1297.0003,22.7498 L1292.6853,22.7498 C1291.95282,22.7498 1291.35367,23.3005152 1291.28572,24.0016685 L1291.2793,24.1348 L1291.2793,35.8658 C1291.2793,36.5860679 1291.83906,37.1799919 1292.55659,37.2441191 L1292.69288,37.2498358 L1296.85988,37.2308078 C1297.27408,37.2289164 1297.6114,37.563166 1297.61329,37.9773753 C1297.61503,38.3570671 1297.33431,38.6721474 1296.96846,38.7234809 L1296.86672,38.7307922 L1292.70004,38.7498929 C1291.1481,38.757568 1289.87335,37.5563761 1289.78427,36.0359991 L1289.7793,35.8658 L1289.7793,24.1348 C1289.7793,22.5967819 1290.99046,21.3423331 1292.5147,21.2546914 L1292.6853,21.2498 L1297.0003,21.2498 Z M1302.44621,25.3971518 L1302.53033,25.4697699 L1306.53053,29.4697699 C1306.55739,29.4966318 1306.58223,29.5255219 1306.60478,29.5561907 L1306.53033,29.4697699 L1306.57861,29.5228278 L1306.57861,29.5228278 L1306.6431,29.6136554 L1306.6431,29.6136554 L1306.69704,29.7222735 L1306.69704,29.7222735 L1306.71743,29.7809597 L1306.71743,29.7809597 C1306.73885,29.8504231 1306.7502,29.9239357 1306.7502,30.0001 C1306.7502,30.05132 1306.74507,30.1013407 1306.73528,30.1496756 L1306.70305,30.2618252 L1306.70305,30.2618252 L1306.67927,30.3188852 L1306.67927,30.3188852 L1306.63775,30.3952652 L1306.63775,30.3952652 L1306.59393,30.4584026 L1306.59393,30.4584026 L1306.53033,30.5304301 L1302.53033,34.5304301 C1302.23744,34.8233233 1301.76256,34.8233233 1301.46967,34.5304301 C1301.2034,34.2641635 1301.1792,33.8474998 1301.39705,33.5538883 L1301.46967,33.4697699 L1304.1883,30.7498 L1295.8652,30.7501 C1295.45099,30.7501 1295.1152,30.4143136 1295.1152,30.0001 C1295.1152,29.6204042 1295.39735,29.306609 1295.76343,29.2569466 L1295.8652,29.2501 L1304.1883,29.2498 L1301.46967,26.5304301 C1301.2034,26.2641635 1301.1792,25.8474998 1301.39705,25.5538883 L1301.46967,25.4697699 C1301.73594,25.2035034 1302.1526,25.1792973 1302.44621,25.3971518 Z"
          transform="translate(-1289 -21)"/>
</svg>
