<svg viewBox="0 0 284.12 578.54" xmlns="http://www.w3.org/2000/svg"><rect fill="#78d6cf" height="483.98" rx="17.92" width="284.12" y="36.32"/><circle cx="20.05" cy="56.25" fill="#fff" r="13.19"/><circle cx="264.07" cy="56.25" fill="#fff" r="13.19"/><circle cx="20.05" cy="500.37" fill="#fff" r="13.19"/><circle cx="264.07" cy="500.37" fill="#fff" r="13.19"/><path d="m0 97.4h284.12v284.12h-284.12z" fill="#414042"/><path d="m0 407.09h284.12v49.88h-284.12z" fill="#414042"/><g fill="#fff"><circle cx="25.91" cy="123.31" r="11.16"/><circle cx="59.1" cy="123.31" r="11.16"/><circle cx="92.28" cy="123.31" r="11.16"/><circle cx="125.47" cy="123.31" r="11.16"/><circle cx="158.65" cy="123.31" r="11.16"/><circle cx="191.84" cy="123.31" r="11.16"/><circle cx="225.02" cy="123.31" r="11.16"/><circle cx="258.2" cy="123.31" r="11.16"/><circle cx="25.91" cy="156.5" r="11.16"/><circle cx="59.1" cy="156.5" r="11.16"/><circle cx="92.28" cy="156.5" r="11.16"/><circle cx="125.47" cy="156.5" r="11.16"/><circle cx="158.65" cy="156.5" r="11.16"/><circle cx="191.84" cy="156.5" r="11.16"/><circle cx="225.02" cy="156.5" r="11.16"/><circle cx="258.2" cy="156.5" r="11.16"/><circle cx="25.91" cy="189.68" r="11.16"/><circle cx="59.1" cy="189.68" r="11.16"/><circle cx="92.28" cy="189.68" r="11.16"/><circle cx="125.47" cy="189.68" r="11.16"/><circle cx="158.65" cy="189.68" r="11.16"/><circle cx="191.84" cy="189.68" r="11.16"/><circle cx="225.02" cy="189.68" r="11.16"/><circle cx="258.2" cy="189.68" r="11.16"/><circle cx="25.91" cy="222.86" r="11.16"/><circle cx="59.1" cy="222.86" r="11.16"/><circle cx="92.28" cy="222.86" r="11.16"/><circle cx="125.47" cy="222.86" r="11.16"/><circle cx="158.65" cy="222.86" r="11.16"/><circle cx="191.84" cy="222.86" r="11.16"/><circle cx="225.02" cy="222.86" r="11.16"/><circle cx="258.2" cy="222.86" r="11.16"/><circle cx="25.91" cy="256.05" r="11.16"/><circle cx="59.1" cy="256.05" r="11.16"/><circle cx="92.28" cy="256.05" r="11.16"/><circle cx="125.47" cy="256.05" r="11.16"/><circle cx="158.65" cy="256.05" r="11.16"/><circle cx="191.84" cy="256.05" r="11.16"/><circle cx="225.02" cy="256.05" r="11.16"/><circle cx="258.2" cy="256.05" r="11.16"/><circle cx="25.91" cy="289.23" r="11.16"/><circle cx="59.1" cy="289.23" r="11.16"/><circle cx="92.28" cy="289.23" r="11.16"/><circle cx="125.47" cy="289.23" r="11.16"/><circle cx="158.65" cy="289.23" r="11.16"/><circle cx="191.84" cy="289.23" r="11.16"/><circle cx="225.02" cy="289.23" r="11.16"/><circle cx="258.2" cy="289.23" r="11.16"/><circle cx="25.91" cy="322.42" r="11.16"/><circle cx="59.1" cy="322.42" r="11.16"/><circle cx="92.28" cy="322.42" r="11.16"/><circle cx="125.47" cy="322.42" r="11.16"/><circle cx="158.65" cy="322.42" r="11.16"/><circle cx="191.84" cy="322.42" r="11.16"/><circle cx="225.02" cy="322.42" r="11.16"/><circle cx="258.2" cy="322.42" r="11.16"/><circle cx="25.91" cy="355.6" r="11.16"/><circle cx="59.1" cy="355.6" r="11.16"/><circle cx="92.28" cy="355.6" r="11.16"/><circle cx="125.47" cy="355.6" r="11.16"/><circle cx="158.65" cy="355.6" r="11.16"/><circle cx="191.84" cy="355.6" r="11.16"/><circle cx="225.02" cy="355.6" r="11.16"/><circle cx="258.2" cy="355.6" r="11.16"/></g><path d="m56.41 481.14h171.3v39.14h-171.3z" fill="#58595b"/><path d="m104.29 502.57h12.91v75.97h-12.91z" fill="#c1c4c6"/><path d="m72.97 502.57h12.91v75.97h-12.91z" fill="#c1c4c6"/><path d="m135.6 502.57h12.91v75.97h-12.91z" fill="#c1c4c6"/><path d="m166.92 502.57h12.91v75.97h-12.91z" fill="#c1c4c6"/><path d="m198.23 502.57h12.91v75.97h-12.91z" fill="#c1c4c6"/><path d="m56.41 58.25h171.3v39.14h-171.3z" fill="#58595b" transform="matrix(-1 0 0 -1 284.12 155.65)"/><path d="m166.92 0h12.91v75.97h-12.91z" fill="#c1c4c6" transform="matrix(-1 0 0 -1 346.75 75.97)"/><path d="m198.23 0h12.91v75.97h-12.91z" fill="#c1c4c6" transform="matrix(-1 0 0 -1 409.38 75.97)"/><path d="m135.6 0h12.91v75.97h-12.91z" fill="#c1c4c6" transform="matrix(-1 0 0 -1 284.12 75.97)"/><path d="m104.29 0h12.91v75.97h-12.91z" fill="#c1c4c6" transform="matrix(-1 0 0 -1 221.49 75.97)"/><path d="m72.97 0h12.91v75.97h-12.91z" fill="#c1c4c6" transform="matrix(-1 0 0 -1 158.86 75.97)"/></svg>