<svg viewBox="0 0 528.21 230.66" xmlns="http://www.w3.org/2000/svg"><rect fill="#78d6cf" height="230.66" rx="17.92" width="469.95" x="58.26"/><circle cx="78.31" cy="19.93" fill="#fff" r="13.19"/><circle cx="508.17" cy="19.93" fill="#fff" r="13.19"/><circle cx="78.31" cy="210.73" fill="#fff" r="13.19"/><circle cx="508.17" cy="210.73" fill="#fff" r="13.19"/><path d="m8.09 95.76h139.47v39.14h-139.47z" fill="#58595b" transform="matrix(0 1 -1 0 193.16 37.5)"/><path d="m31.53 61.95h12.91v75.97h-12.91z" fill="#c1c4c6" transform="matrix(0 1 -1 0 137.92 61.95)"/><path d="m31.53 30.63h12.91v75.97h-12.91z" fill="#c1c4c6" transform="matrix(0 1 -1 0 106.6 30.63)"/><path d="m31.53 93.26h12.91v75.97h-12.91z" fill="#c1c4c6" transform="matrix(0 1 -1 0 169.23 93.26)"/><path d="m31.53 124.58h12.91v75.97h-12.91z" fill="#c1c4c6" transform="matrix(0 1 -1 0 200.55 124.58)"/><path d="m127.51 45.59h356.25v139.47h-356.25z" fill="#414042"/><g fill="#666368"><rect height="83.16" rx="12.05" width="52.99" x="150.76" y="73.75"/><rect height="83.16" rx="12.05" width="52.99" x="227.91" y="73.75"/><rect height="83.16" rx="12.05" width="52.99" x="330.38" y="73.75"/><rect height="83.16" rx="12.05" width="52.99" x="407.52" y="73.75"/><circle cx="305.63" cy="98.23" r="7.21"/><circle cx="305.63" cy="132.43" r="7.21"/></g></svg>