<svg viewBox="0 0 5000 833.93" xmlns="http://www.w3.org/2000/svg"><path d="m1910.71 334.8v-78.17h-395.14v320.75h395.14v-16.62l26.81-27.36.23-171.02z" fill="#78d6cf"/><circle cx="1910.87" cy="369.15" fill="#fff" r="13.48"/><circle cx="1910.87" cy="524.24" fill="#fff" r="13.48"/><circle cx="1611.86" cy="556.62" fill="#fff" r="13.48"/><circle cx="1592.77" cy="285.47" fill="#fff" r="13.48"/><path d="m1679.61 547.57h125.96v29.81h-125.96z" fill="#414042"/><path d="m1790.9 256.63h119.97v28.84h-119.97z" fill="#414042"/><path d="m1820.91 547.57h89.96v29.81h-89.96z" fill="#414042"/><path d="m1619.45 256.63h156.16v28.84h-156.16z" fill="#414042"/><path d="m1515.57 502.07h70.59v54.55h-70.59z" fill="#58595b"/><path d="m1494.81 502.07h20.77v54.55h-20.77z" fill="#414042"/><path d="m1708.8 437.3h202.07v63.84h-202.07z" fill="#414042"/><path d="m1602.24 348.73h37.64v37.64h-37.64z" fill="#4c4c4c"/><path d="m1470.07 311.09h102.58v75.28h-102.58z" fill="#e3e4e5"/><path d="m1547.78 421.34h24.87v47.88h-24.87z" fill="#4c4c4c"/><rect fill="#e3e4e5" height="50.4" rx="25.2" width="50.4" x="1592.77" y="485.54"/><rect fill="#e3e4e5" height="50.4" rx="25.2" width="50.4" x="1649.4" y="485.54"/><g fill="#fff" opacity=".9"><path d="m1668.78 352.87c0 48.34 66.47 66.34 99.31 17.12 34 51 97.83 29.64 97.83-17.19s-63.5-69.36-97.83-17.06c-32.54-51.69-99.31-31.21-99.31 17.13zm17.46 0c0-34.88 49.3-45.89 72.23 0-23.38 44.19-72.23 34.89-72.23 0zm91.46 0c20.66-46.8 71.3-33.9 71.15.08s-51.09 44.56-71.15-.08z" fill-rule="evenodd"/><path d="m1704.77 347.97h29.26v9.65h-29.26z"/><path d="m1810.93 357.47h-9.65v-10.25h9.65v-9.65h10.26v9.65h9.65v10.25h-9.65v9.66h-10.26z" fill-rule="evenodd"/></g><path d="m416.68 336.5h950.74v24.45h-950.74z" fill="#e3e4e5" transform="matrix(-1 0 0 -1 1784.1 697.45)"/><path d="m368.83 328.08h47.85v41.29h-47.85z" fill="#e3e4e5" transform="matrix(-1 0 0 -1 785.51 697.45)"/><path d="m276.82 311.29h92.01v74.87h-92.01z" fill="#c9caca" transform="matrix(-1 0 0 -1 645.65 697.45)"/><path d="m224.62 319.27h52.2v58.9h-52.2z" fill="#e3e4e5" transform="matrix(-1 0 0 -1 501.44 697.45)"/><path d="m1367.33 322.26h88.3v52.93h-88.3z" fill="#e3e4e5"/><path d="m1455.64 322.26h14.43v52.93h-14.43z" fill="#c9caca"/><path d="m245.38 328.81h14.27v14.27h-14.27z" fill="#c9caca" transform="matrix(0 -1 1 0 -83.42 588.46)"/><path d="m245.38 354.37h14.27v14.27h-14.27z" fill="#c9caca" transform="matrix(0 -1 1 0 -108.99 614.03)"/><rect fill="#78d6cf" height="335.81" rx="12.43" width="197.13" x="2170.73" y="241.49"/><circle cx="2184.63" cy="255.32" fill="#fff" r="9.15"/><circle cx="2353.95" cy="255.32" fill="#fff" r="9.15"/><circle cx="2184.63" cy="563.47" fill="#fff" r="9.15"/><circle cx="2353.95" cy="563.47" fill="#fff" r="9.15"/><path d="m2170.73 283.88h197.13v197.13h-197.13z" fill="#e0e0e0"/><path d="m2170.73 498.76h197.13v34.61h-197.13z" fill="#414042"/><g fill="#fff"><circle cx="2188.71" cy="301.86" r="7.74"/><circle cx="2211.73" cy="301.86" r="7.74"/><circle cx="2234.76" cy="301.86" r="7.74"/><circle cx="2257.78" cy="301.86" r="7.74"/><circle cx="2280.8" cy="301.86" r="7.74"/><circle cx="2303.83" cy="301.86" r="7.74"/><circle cx="2326.85" cy="301.86" r="7.74"/><circle cx="2349.88" cy="301.86" r="7.74"/><circle cx="2188.71" cy="324.88" r="7.74"/><circle cx="2211.73" cy="324.88" r="7.74"/><circle cx="2234.76" cy="324.88" r="7.74"/><circle cx="2257.78" cy="324.88" r="7.74"/><circle cx="2280.8" cy="324.88" r="7.74"/><circle cx="2303.83" cy="324.88" r="7.74"/><circle cx="2326.85" cy="324.88" r="7.74"/><circle cx="2349.88" cy="324.88" r="7.74"/><circle cx="2188.71" cy="347.91" r="7.74"/><circle cx="2211.73" cy="347.91" r="7.74"/><circle cx="2234.76" cy="347.91" r="7.74"/><circle cx="2257.78" cy="347.91" r="7.74"/><circle cx="2280.8" cy="347.91" r="7.74"/><circle cx="2303.83" cy="347.91" r="7.74"/><circle cx="2326.85" cy="347.91" r="7.74"/><circle cx="2349.88" cy="347.91" r="7.74"/><circle cx="2188.71" cy="370.93" r="7.74"/><circle cx="2211.73" cy="370.93" r="7.74"/><circle cx="2234.76" cy="370.93" r="7.74"/><circle cx="2257.78" cy="370.93" r="7.74"/><circle cx="2280.8" cy="370.93" r="7.74"/><circle cx="2303.83" cy="370.93" r="7.74"/><circle cx="2326.85" cy="370.93" r="7.74"/><circle cx="2349.88" cy="370.93" r="7.74"/><circle cx="2188.71" cy="393.95" r="7.74"/><circle cx="2211.73" cy="393.95" r="7.74"/><circle cx="2234.76" cy="393.95" r="7.74"/><circle cx="2257.78" cy="393.95" r="7.74"/><circle cx="2280.8" cy="393.95" r="7.74"/><circle cx="2303.83" cy="393.95" r="7.74"/><circle cx="2326.85" cy="393.95" r="7.74"/><circle cx="2349.88" cy="393.95" r="7.74"/><circle cx="2188.71" cy="416.98" r="7.74"/><circle cx="2211.73" cy="416.98" r="7.74"/><circle cx="2234.76" cy="416.98" r="7.74"/><circle cx="2257.78" cy="416.98" r="7.74"/><circle cx="2280.8" cy="416.98" r="7.74"/><circle cx="2303.83" cy="416.98" r="7.74"/><circle cx="2326.85" cy="416.98" r="7.74"/><circle cx="2349.88" cy="416.98" r="7.74"/><circle cx="2188.71" cy="440" r="7.74"/><circle cx="2211.73" cy="440" r="7.74"/><circle cx="2234.76" cy="440" r="7.74"/><circle cx="2257.78" cy="440" r="7.74"/><circle cx="2280.8" cy="440" r="7.74"/><circle cx="2303.83" cy="440" r="7.74"/><circle cx="2326.85" cy="440" r="7.74"/><circle cx="2349.88" cy="440" r="7.74"/><circle cx="2188.71" cy="463.03" r="7.74"/><circle cx="2211.73" cy="463.03" r="7.74"/><circle cx="2234.76" cy="463.03" r="7.74"/><circle cx="2257.78" cy="463.03" r="7.74"/><circle cx="2280.8" cy="463.03" r="7.74"/><circle cx="2303.83" cy="463.03" r="7.74"/><circle cx="2326.85" cy="463.03" r="7.74"/><circle cx="2349.88" cy="463.03" r="7.74"/></g><path d="m2209.86 550.13h118.86v27.16h-118.86z" fill="#58595b"/><path d="m2243.08 565h8.96v52.71h-8.96z" fill="#c1c4c6"/><path d="m2221.36 565h8.96v52.71h-8.96z" fill="#c1c4c6"/><path d="m2264.81 565h8.96v52.71h-8.96z" fill="#c1c4c6"/><path d="m2286.54 565h8.96v52.71h-8.96z" fill="#c1c4c6"/><path d="m2308.27 565h8.96v52.71h-8.96z" fill="#c1c4c6"/><path d="m2209.86 256.72h118.86v27.16h-118.86z" fill="#58595b" transform="matrix(-1 0 0 -1 4538.58 540.59)"/><path d="m2286.54 216.3h8.96v52.71h-8.96z" fill="#c1c4c6" transform="matrix(-1 0 0 -1 4582.04 485.31)"/><path d="m2308.27 216.3h8.96v52.71h-8.96z" fill="#c1c4c6" transform="matrix(-1 0 0 -1 4625.49 485.31)"/><path d="m2264.81 216.3h8.96v52.71h-8.96z" fill="#c1c4c6" transform="matrix(-1 0 0 -1 4538.58 485.31)"/><path d="m2243.08 216.3h8.96v52.71h-8.96z" fill="#c1c4c6" transform="matrix(-1 0 0 -1 4495.13 485.31)"/><path d="m2221.36 216.3h8.96v52.71h-8.96z" fill="#c1c4c6" transform="matrix(-1 0 0 -1 4451.67 485.31)"/><rect fill="#78d6cf" height="335.81" rx="12.43" width="197.13" x="2554.64" y="241.49"/><circle cx="2568.55" cy="255.32" fill="#fff" r="9.15"/><circle cx="2737.87" cy="255.32" fill="#fff" r="9.15"/><circle cx="2568.55" cy="563.47" fill="#fff" r="9.15"/><circle cx="2737.87" cy="563.47" fill="#fff" r="9.15"/><path d="m2554.64 283.88h197.13v197.13h-197.13z" fill="#e0e0e0"/><path d="m2554.64 498.76h197.13v34.61h-197.13z" fill="#414042"/><circle cx="2572.62" cy="301.86" fill="#fff" r="7.74"/><circle cx="2595.65" cy="301.86" fill="#fff" r="7.74"/><circle cx="2618.67" cy="301.86" fill="#fff" r="7.74"/><circle cx="2641.69" cy="301.86" fill="#fff" r="7.74"/><circle cx="2664.72" cy="301.86" fill="#fff" r="7.74"/><circle cx="2687.74" cy="301.86" fill="#fff" r="7.74"/><circle cx="2710.77" cy="301.86" fill="#fff" r="7.74"/><circle cx="2733.79" cy="301.86" fill="#fff" r="7.74"/><circle cx="2572.62" cy="324.88" fill="#fff" r="7.74"/><circle cx="2595.65" cy="324.88" fill="#fff" r="7.74"/><circle cx="2618.67" cy="324.88" fill="#fff" r="7.74"/><circle cx="2641.69" cy="324.88" fill="#fff" r="7.74"/><circle cx="2664.72" cy="324.88" fill="#fff" r="7.74"/><circle cx="2687.74" cy="324.88" fill="#fff" r="7.74"/><circle cx="2710.77" cy="324.88" fill="#fff" r="7.74"/><circle cx="2733.79" cy="324.88" fill="#fff" r="7.74"/><circle cx="2572.62" cy="347.91" fill="#fff" r="7.74"/><circle cx="2595.65" cy="347.91" fill="#fff" r="7.74"/><circle cx="2618.67" cy="347.91" fill="#fff" r="7.74"/><circle cx="2641.69" cy="347.91" fill="#fff" r="7.74"/><circle cx="2664.72" cy="347.91" fill="#fff" r="7.74"/><circle cx="2687.74" cy="347.91" fill="#fff" r="7.74"/><circle cx="2710.77" cy="347.91" fill="#fff" r="7.74"/><circle cx="2733.79" cy="347.91" fill="#fff" r="7.74"/><circle cx="2572.62" cy="370.93" fill="#fff" r="7.74"/><circle cx="2595.65" cy="370.93" fill="#fff" r="7.74"/><circle cx="2618.67" cy="370.93" fill="#fff" r="7.74"/><circle cx="2641.69" cy="370.93" fill="#fff" r="7.74"/><circle cx="2664.72" cy="370.93" fill="#fff" r="7.74"/><circle cx="2687.74" cy="370.93" fill="#fff" r="7.74"/><circle cx="2710.77" cy="370.93" fill="#fff" r="7.74"/><circle cx="2733.79" cy="370.93" fill="#fff" r="7.74"/><circle cx="2572.62" cy="393.95" fill="#fff" r="7.74"/><circle cx="2595.65" cy="393.95" fill="#fff" r="7.74"/><circle cx="2618.67" cy="393.95" fill="#fff" r="7.74"/><circle cx="2641.69" cy="393.95" fill="#fff" r="7.74"/><circle cx="2664.72" cy="393.95" fill="#fff" r="7.74"/><circle cx="2687.74" cy="393.95" fill="#fff" r="7.74"/><circle cx="2710.77" cy="393.95" fill="#fff" r="7.74"/><circle cx="2733.79" cy="393.95" fill="#fff" r="7.74"/><circle cx="2572.62" cy="416.98" fill="#fff" r="7.74"/><circle cx="2595.65" cy="416.98" fill="#fff" r="7.74"/><circle cx="2618.67" cy="416.98" fill="#fff" r="7.74"/><circle cx="2641.69" cy="416.98" fill="#fff" r="7.74"/><circle cx="2664.72" cy="416.98" fill="#fff" r="7.74"/><circle cx="2687.74" cy="416.98" fill="#fff" r="7.74"/><circle cx="2710.77" cy="416.98" fill="#fff" r="7.74"/><circle cx="2733.79" cy="416.98" fill="#fff" r="7.74"/><circle cx="2572.62" cy="440" fill="#fff" r="7.74"/><circle cx="2595.65" cy="440" fill="#fff" r="7.74"/><circle cx="2618.67" cy="440" fill="#fff" r="7.74"/><circle cx="2641.69" cy="440" fill="#fff" r="7.74"/><circle cx="2664.72" cy="440" fill="#fff" r="7.74"/><circle cx="2687.74" cy="440" fill="#fff" r="7.74"/><circle cx="2710.77" cy="440" fill="#fff" r="7.74"/><circle cx="2733.79" cy="440" fill="#fff" r="7.74"/><circle cx="2572.62" cy="463.03" fill="#fff" r="7.74"/><circle cx="2595.65" cy="463.03" fill="#fff" r="7.74"/><circle cx="2618.67" cy="463.03" fill="#fff" r="7.74"/><circle cx="2641.69" cy="463.03" fill="#fff" r="7.74"/><circle cx="2664.72" cy="463.03" fill="#fff" r="7.74"/><circle cx="2687.74" cy="463.03" fill="#fff" r="7.74"/><circle cx="2710.77" cy="463.03" fill="#fff" r="7.74"/><circle cx="2733.79" cy="463.03" fill="#fff" r="7.74"/><path d="m2593.78 550.13h118.86v27.16h-118.86z" fill="#58595b"/><path d="m2627 565h8.96v52.71h-8.96z" fill="#c1c4c6"/><path d="m2605.27 565h8.96v52.71h-8.96z" fill="#c1c4c6"/><path d="m2648.73 565h8.96v52.71h-8.96z" fill="#c1c4c6"/><path d="m2670.45 565h8.96v52.71h-8.96z" fill="#c1c4c6"/><path d="m2692.18 565h8.96v52.71h-8.96z" fill="#c1c4c6"/><path d="m2593.78 256.72h118.86v27.16h-118.86z" fill="#58595b" transform="matrix(-1 0 0 -1 5306.41 540.59)"/><path d="m2670.45 216.3h8.96v52.71h-8.96z" fill="#c1c4c6" transform="matrix(-1 0 0 -1 5349.87 485.31)"/><path d="m2692.18 216.3h8.96v52.71h-8.96z" fill="#c1c4c6" transform="matrix(-1 0 0 -1 5393.32 485.31)"/><path d="m2648.73 216.3h8.96v52.71h-8.96z" fill="#c1c4c6" transform="matrix(-1 0 0 -1 5306.41 485.31)"/><path d="m2627 216.3h8.96v52.71h-8.96z" fill="#c1c4c6" transform="matrix(-1 0 0 -1 5262.96 485.31)"/><path d="m2605.27 216.3h8.96v52.71h-8.96z" fill="#c1c4c6" transform="matrix(-1 0 0 -1 5219.5 485.31)"/><rect fill="#78d6cf" height="335.81" rx="12.43" width="197.13" x="2938.41" y="241.49"/><circle cx="2952.32" cy="255.32" fill="#fff" r="9.15"/><circle cx="3121.64" cy="255.32" fill="#fff" r="9.15"/><circle cx="2952.32" cy="563.47" fill="#fff" r="9.15"/><circle cx="3121.64" cy="563.47" fill="#fff" r="9.15"/><path d="m2938.41 283.88h197.13v197.13h-197.13z" fill="#e0e0e0"/><path d="m2938.41 498.76h197.13v34.61h-197.13z" fill="#414042"/><circle cx="2956.39" cy="301.86" fill="#fff" r="7.74"/><circle cx="2979.42" cy="301.86" fill="#fff" r="7.74"/><circle cx="3002.44" cy="301.86" fill="#fff" r="7.74"/><circle cx="3025.47" cy="301.86" fill="#fff" r="7.74"/><circle cx="3048.49" cy="301.86" fill="#fff" r="7.74"/><circle cx="3071.52" cy="301.86" fill="#fff" r="7.74"/><circle cx="3094.54" cy="301.86" fill="#fff" r="7.74"/><circle cx="3117.57" cy="301.86" fill="#fff" r="7.74"/><circle cx="2956.39" cy="324.88" fill="#fff" r="7.74"/><circle cx="2979.42" cy="324.88" fill="#fff" r="7.74"/><circle cx="3002.44" cy="324.88" fill="#fff" r="7.74"/><circle cx="3025.47" cy="324.88" fill="#fff" r="7.74"/><circle cx="3048.49" cy="324.88" fill="#fff" r="7.74"/><circle cx="3071.52" cy="324.88" fill="#fff" r="7.74"/><circle cx="3094.54" cy="324.88" fill="#fff" r="7.74"/><circle cx="3117.57" cy="324.88" fill="#fff" r="7.74"/><circle cx="2956.39" cy="347.91" fill="#fff" r="7.74"/><circle cx="2979.42" cy="347.91" fill="#fff" r="7.74"/><circle cx="3002.44" cy="347.91" fill="#fff" r="7.74"/><circle cx="3025.47" cy="347.91" fill="#fff" r="7.74"/><circle cx="3048.49" cy="347.91" fill="#fff" r="7.74"/><circle cx="3071.52" cy="347.91" fill="#fff" r="7.74"/><circle cx="3094.54" cy="347.91" fill="#fff" r="7.74"/><circle cx="3117.57" cy="347.91" fill="#fff" r="7.74"/><circle cx="2956.39" cy="370.93" fill="#fff" r="7.74"/><circle cx="2979.42" cy="370.93" fill="#fff" r="7.74"/><circle cx="3002.44" cy="370.93" fill="#fff" r="7.74"/><circle cx="3025.47" cy="370.93" fill="#fff" r="7.74"/><circle cx="3048.49" cy="370.93" fill="#fff" r="7.74"/><circle cx="3071.52" cy="370.93" fill="#fff" r="7.74"/><circle cx="3094.54" cy="370.93" fill="#fff" r="7.74"/><circle cx="3117.57" cy="370.93" fill="#fff" r="7.74"/><circle cx="2956.39" cy="393.95" fill="#fff" r="7.74"/><circle cx="2979.42" cy="393.95" fill="#fff" r="7.74"/><circle cx="3002.44" cy="393.95" fill="#fff" r="7.74"/><circle cx="3025.47" cy="393.95" fill="#fff" r="7.74"/><circle cx="3048.49" cy="393.95" fill="#fff" r="7.74"/><circle cx="3071.52" cy="393.95" fill="#fff" r="7.74"/><circle cx="3094.54" cy="393.95" fill="#fff" r="7.74"/><circle cx="3117.57" cy="393.95" fill="#fff" r="7.74"/><circle cx="2956.39" cy="416.98" fill="#fff" r="7.74"/><circle cx="2979.42" cy="416.98" fill="#fff" r="7.74"/><circle cx="3002.44" cy="416.98" fill="#fff" r="7.74"/><circle cx="3025.47" cy="416.98" fill="#fff" r="7.74"/><circle cx="3048.49" cy="416.98" fill="#fff" r="7.74"/><circle cx="3071.52" cy="416.98" fill="#fff" r="7.74"/><circle cx="3094.54" cy="416.98" fill="#fff" r="7.74"/><circle cx="3117.57" cy="416.98" fill="#fff" r="7.74"/><circle cx="2956.39" cy="440" fill="#fff" r="7.74"/><circle cx="2979.42" cy="440" fill="#fff" r="7.74"/><circle cx="3002.44" cy="440" fill="#fff" r="7.74"/><circle cx="3025.47" cy="440" fill="#fff" r="7.74"/><circle cx="3048.49" cy="440" fill="#fff" r="7.74"/><circle cx="3071.52" cy="440" fill="#fff" r="7.74"/><circle cx="3094.54" cy="440" fill="#fff" r="7.74"/><circle cx="3117.57" cy="440" fill="#fff" r="7.74"/><circle cx="2956.39" cy="463.03" fill="#fff" r="7.74"/><circle cx="2979.42" cy="463.03" fill="#fff" r="7.74"/><circle cx="3002.44" cy="463.03" fill="#fff" r="7.74"/><circle cx="3025.47" cy="463.03" fill="#fff" r="7.74"/><circle cx="3048.49" cy="463.03" fill="#fff" r="7.74"/><circle cx="3071.52" cy="463.03" fill="#fff" r="7.74"/><circle cx="3094.54" cy="463.03" fill="#fff" r="7.74"/><circle cx="3117.57" cy="463.03" fill="#fff" r="7.74"/><path d="m2977.55 550.13h118.86v27.16h-118.86z" fill="#58595b"/><path d="m3010.77 565h8.96v52.71h-8.96z" fill="#c1c4c6"/><path d="m2989.04 565h8.96v52.71h-8.96z" fill="#c1c4c6"/><path d="m3032.5 565h8.96v52.71h-8.96z" fill="#c1c4c6"/><path d="m3054.23 565h8.96v52.71h-8.96z" fill="#c1c4c6"/><path d="m3075.96 565h8.96v52.71h-8.96z" fill="#c1c4c6"/><path d="m2977.55 256.72h118.86v27.16h-118.86z" fill="#58595b" transform="matrix(-1 0 0 -1 6073.96 540.59)"/><path d="m3054.23 216.3h8.96v52.71h-8.96z" fill="#c1c4c6" transform="matrix(-1 0 0 -1 6117.42 485.31)"/><path d="m3075.96 216.3h8.96v52.71h-8.96z" fill="#c1c4c6" transform="matrix(-1 0 0 -1 6160.87 485.31)"/><path d="m3032.5 216.3h8.96v52.71h-8.96z" fill="#c1c4c6" transform="matrix(-1 0 0 -1 6073.96 485.31)"/><path d="m3010.77 216.3h8.96v52.71h-8.96z" fill="#c1c4c6" transform="matrix(-1 0 0 -1 6030.51 485.31)"/><path d="m2989.04 216.3h8.96v52.71h-8.96z" fill="#c1c4c6" transform="matrix(-1 0 0 -1 5987.05 485.31)"/><rect fill="#78d6cf" height="335.81" rx="12.43" width="197.13" x="3322.19" y="241.49"/><circle cx="3336.1" cy="255.32" fill="#fff" r="9.15"/><circle cx="3505.41" cy="255.32" fill="#fff" r="9.15"/><circle cx="3336.1" cy="563.47" fill="#fff" r="9.15"/><circle cx="3505.41" cy="563.47" fill="#fff" r="9.15"/><path d="m3322.19 283.88h197.13v197.13h-197.13z" fill="#e0e0e0"/><path d="m3322.19 498.76h197.13v34.61h-197.13z" fill="#414042"/><circle cx="3340.17" cy="301.86" fill="#fff" r="7.74"/><circle cx="3363.19" cy="301.86" fill="#fff" r="7.74"/><circle cx="3386.22" cy="301.86" fill="#fff" r="7.74"/><circle cx="3409.24" cy="301.86" fill="#fff" r="7.74"/><circle cx="3432.27" cy="301.86" fill="#fff" r="7.74"/><circle cx="3455.29" cy="301.86" fill="#fff" r="7.74"/><circle cx="3478.32" cy="301.86" fill="#fff" r="7.74"/><circle cx="3501.34" cy="301.86" fill="#fff" r="7.74"/><circle cx="3340.17" cy="324.88" fill="#fff" r="7.74"/><circle cx="3363.19" cy="324.88" fill="#fff" r="7.74"/><circle cx="3386.22" cy="324.88" fill="#fff" r="7.74"/><circle cx="3409.24" cy="324.88" fill="#fff" r="7.74"/><circle cx="3432.27" cy="324.88" fill="#fff" r="7.74"/><circle cx="3455.29" cy="324.88" fill="#fff" r="7.74"/><circle cx="3478.32" cy="324.88" fill="#fff" r="7.74"/><circle cx="3501.34" cy="324.88" fill="#fff" r="7.74"/><circle cx="3340.17" cy="347.91" fill="#fff" r="7.74"/><circle cx="3363.19" cy="347.91" fill="#fff" r="7.74"/><circle cx="3386.22" cy="347.91" fill="#fff" r="7.74"/><circle cx="3409.24" cy="347.91" fill="#fff" r="7.74"/><circle cx="3432.27" cy="347.91" fill="#fff" r="7.74"/><circle cx="3455.29" cy="347.91" fill="#fff" r="7.74"/><circle cx="3478.32" cy="347.91" fill="#fff" r="7.74"/><circle cx="3501.34" cy="347.91" fill="#fff" r="7.74"/><circle cx="3340.17" cy="370.93" fill="#fff" r="7.74"/><circle cx="3363.19" cy="370.93" fill="#fff" r="7.74"/><circle cx="3386.22" cy="370.93" fill="#fff" r="7.74"/><circle cx="3409.24" cy="370.93" fill="#fff" r="7.74"/><circle cx="3432.27" cy="370.93" fill="#fff" r="7.74"/><circle cx="3455.29" cy="370.93" fill="#fff" r="7.74"/><circle cx="3478.32" cy="370.93" fill="#fff" r="7.74"/><circle cx="3501.34" cy="370.93" fill="#fff" r="7.74"/><circle cx="3340.17" cy="393.95" fill="#fff" r="7.74"/><circle cx="3363.19" cy="393.95" fill="#fff" r="7.74"/><circle cx="3386.22" cy="393.95" fill="#fff" r="7.74"/><circle cx="3409.24" cy="393.95" fill="#fff" r="7.74"/><circle cx="3432.27" cy="393.95" fill="#fff" r="7.74"/><circle cx="3455.29" cy="393.95" fill="#fff" r="7.74"/><circle cx="3478.32" cy="393.95" fill="#fff" r="7.74"/><circle cx="3501.34" cy="393.95" fill="#fff" r="7.74"/><circle cx="3340.17" cy="416.98" fill="#fff" r="7.74"/><circle cx="3363.19" cy="416.98" fill="#fff" r="7.74"/><circle cx="3386.22" cy="416.98" fill="#fff" r="7.74"/><circle cx="3409.24" cy="416.98" fill="#fff" r="7.74"/><circle cx="3432.27" cy="416.98" fill="#fff" r="7.74"/><circle cx="3455.29" cy="416.98" fill="#fff" r="7.74"/><circle cx="3478.32" cy="416.98" fill="#fff" r="7.74"/><circle cx="3501.34" cy="416.98" fill="#fff" r="7.74"/><circle cx="3340.17" cy="440" fill="#fff" r="7.74"/><circle cx="3363.19" cy="440" fill="#fff" r="7.74"/><circle cx="3386.22" cy="440" fill="#fff" r="7.74"/><circle cx="3409.24" cy="440" fill="#fff" r="7.74"/><circle cx="3432.27" cy="440" fill="#fff" r="7.74"/><circle cx="3455.29" cy="440" fill="#fff" r="7.74"/><circle cx="3478.32" cy="440" fill="#fff" r="7.74"/><circle cx="3501.34" cy="440" fill="#fff" r="7.74"/><circle cx="3340.17" cy="463.03" fill="#fff" r="7.74"/><circle cx="3363.19" cy="463.03" fill="#fff" r="7.74"/><circle cx="3386.22" cy="463.03" fill="#fff" r="7.74"/><circle cx="3409.24" cy="463.03" fill="#fff" r="7.74"/><circle cx="3432.27" cy="463.03" fill="#fff" r="7.74"/><circle cx="3455.29" cy="463.03" fill="#fff" r="7.74"/><circle cx="3478.32" cy="463.03" fill="#fff" r="7.74"/><circle cx="3501.34" cy="463.03" fill="#fff" r="7.74"/><path d="m3361.32 550.13h118.86v27.16h-118.86z" fill="#58595b"/><path d="m3394.55 565h8.96v52.71h-8.96z" fill="#c1c4c6"/><path d="m3372.82 565h8.96v52.71h-8.96z" fill="#c1c4c6"/><path d="m3416.27 565h8.96v52.71h-8.96z" fill="#c1c4c6"/><path d="m3438 565h8.96v52.71h-8.96z" fill="#c1c4c6"/><path d="m3459.73 565h8.96v52.71h-8.96z" fill="#c1c4c6"/><path d="m3361.32 256.72h118.86v27.16h-118.86z" fill="#58595b" transform="matrix(-1 0 0 -1 6841.51 540.59)"/><path d="m3438 216.3h8.96v52.71h-8.96z" fill="#c1c4c6" transform="matrix(-1 0 0 -1 6884.96 485.31)"/><path d="m3459.73 216.3h8.96v52.71h-8.96z" fill="#c1c4c6" transform="matrix(-1 0 0 -1 6928.42 485.31)"/><path d="m3416.27 216.3h8.96v52.71h-8.96z" fill="#c1c4c6" transform="matrix(-1 0 0 -1 6841.51 485.31)"/><path d="m3394.55 216.3h8.96v52.71h-8.96z" fill="#c1c4c6" transform="matrix(-1 0 0 -1 6798.05 485.31)"/><path d="m3372.82 216.3h8.96v52.71h-8.96z" fill="#c1c4c6" transform="matrix(-1 0 0 -1 6754.6 485.31)"/><path d="m2696.66 617.64v65.36a139.49 139.49 0 0 1 -139.49 139.49 139.49 139.49 0 0 1 -139.49-139.49v-531.88a52.21 52.21 0 0 0 -52-52.21 52.21 52.21 0 0 0 -52.4 52.21v65.18" fill="none" stroke="#e3f982" stroke-miterlimit="10" stroke-width="22.9"/><path d="m2631.48 617.64v65.6a74.49 74.49 0 0 1 -74.5 74.49 74.5 74.5 0 0 1 -74.5-74.49v-532.42a117.66 117.66 0 0 0 -117.66-117.67 117.67 117.67 0 0 0 -117.67 117.67v65.48" fill="none" stroke="#f98adf" stroke-miterlimit="10" stroke-width="22.9"/><path d="m2674.93 617.64v65.48a117.66 117.66 0 0 1 -117.66 117.66 117.66 117.66 0 0 1 -117.66-117.66v-532.42a74.5 74.5 0 0 0 -74.5-74.5 74.49 74.49 0 0 0 -74.5 74.5v65.6" fill="none" stroke="#88d9e2" stroke-miterlimit="10" stroke-width="22.9"/><path d="m2653.21 617.64v65.36a96 96 0 0 1 -96 96 96 96 0 0 1 -96-96v-532.06a96 96 0 0 0 -96-96 96 96 0 0 0 -96 96v65.36" fill="none" stroke="#efefef" stroke-miterlimit="10" stroke-width="22.9"/><path d="m2609.75 617.64v65.17a52.22 52.22 0 0 1 -52.39 52.19 52.23 52.23 0 0 1 -52-52.22v-531.84a139.49 139.49 0 0 0 -139.53-139.49 139.49 139.49 0 0 0 -139.49 139.49v65.36" fill="none" stroke="#ffc69f" stroke-miterlimit="10" stroke-width="22.9"/><path d="m2248 617.64v65.6a74.49 74.49 0 0 1 -74.5 74.49h-364.38a75.09 75.09 0 0 1 -75.1-75.09v-120.17" fill="none" stroke="#f98adf" stroke-miterlimit="10" stroke-width="22.9"/><path d="m2226.23 617.64v65.17a52.21 52.21 0 0 1 -52.39 52.19l-366-.17a52.11 52.11 0 0 1 -52.09-52.11v-120.25" fill="none" stroke="#ffc69f" stroke-miterlimit="10" stroke-width="22.9"/><path d="m2313.14 617.64v65.36a139.49 139.49 0 0 1 -139.49 139.49 139.5 139.5 0 0 1 -139.49-139.49v-531.83a52.13 52.13 0 0 0 -52.07-52.17l-173.77-.24a52.14 52.14 0 0 0 -52.2 52.14v120.15" fill="none" stroke="#e3f982" stroke-miterlimit="10" stroke-width="22.9"/><path d="m2291.42 617.64v65.48a117.66 117.66 0 0 1 -117.67 117.66 117.66 117.66 0 0 1 -117.66-117.66v-532.12a74.77 74.77 0 0 0 -74.77-74.77h-173.08a74.76 74.76 0 0 0 -74.77 74.77v120.05" fill="none" stroke="#88d9e2" stroke-miterlimit="10" stroke-width="22.9"/><path d="m2269.69 617.64v65.36a96 96 0 0 1 -96 96 96 96 0 0 1 -96-96v-532a96.12 96.12 0 0 0 -96.19-96.1h-173.5a96.12 96.12 0 0 0 -96.07 96.1v120" fill="none" stroke="#efefef" stroke-miterlimit="10" stroke-width="22.9"/><path d="m3080.44 617.64v65.36a139.5 139.5 0 0 1 -139.44 139.49 139.49 139.49 0 0 1 -139.54-139.49v-531.88a52.22 52.22 0 0 0 -52-52.21 52.21 52.21 0 0 0 -52.46 52.21v65.18" fill="none" stroke="#e3f982" stroke-miterlimit="10" stroke-width="22.9"/><path d="m3015.25 617.64v65.6a74.49 74.49 0 0 1 -74.5 74.49 74.5 74.5 0 0 1 -74.5-74.49v-532.42a117.66 117.66 0 0 0 -117.66-117.67 117.66 117.66 0 0 0 -117.66 117.67v65.48" fill="none" stroke="#f98adf" stroke-miterlimit="10" stroke-width="22.9"/><path d="m3058.71 617.64v65.48a117.66 117.66 0 0 1 -117.71 117.66 117.66 117.66 0 0 1 -117.66-117.66v-532.42a74.49 74.49 0 0 0 -74.5-74.5 74.5 74.5 0 0 0 -74.5 74.5v65.6" fill="none" stroke="#88d9e2" stroke-miterlimit="10" stroke-width="22.9"/><path d="m3037 617.64v65.36a96 96 0 0 1 -96 96 96 96 0 0 1 -96-96v-532.06a96 96 0 0 0 -96-96 96 96 0 0 0 -96 96v65.36" fill="none" stroke="#efefef" stroke-miterlimit="10" stroke-width="22.9"/><path d="m2993.53 617.64v65.17a52.22 52.22 0 0 1 -52.4 52.22 52.22 52.22 0 0 1 -52-52.22v-531.87a139.49 139.49 0 0 0 -139.52-139.49 139.49 139.49 0 0 0 -139.49 139.49v65.36" fill="none" stroke="#ffc69f" stroke-miterlimit="10" stroke-width="22.9"/><path d="m3464.21 617.64v65.36a139.49 139.49 0 0 1 -139.49 139.49 139.49 139.49 0 0 1 -139.49-139.49v-531.88a52.22 52.22 0 0 0 -52-52.21 52.21 52.21 0 0 0 -52.4 52.21v65.18" fill="none" stroke="#e3f982" stroke-miterlimit="10" stroke-width="22.9"/><path d="m3399 617.64v65.6a74.5 74.5 0 0 1 -74.5 74.49 74.49 74.49 0 0 1 -74.5-74.49v-532.42a117.67 117.67 0 0 0 -117.64-117.67 117.66 117.66 0 0 0 -117.66 117.67v65.48" fill="none" stroke="#f98adf" stroke-miterlimit="10" stroke-width="22.9"/><path d="m3442.48 617.64v65.48a117.66 117.66 0 0 1 -117.66 117.66 117.66 117.66 0 0 1 -117.67-117.66v-532.42a74.49 74.49 0 0 0 -74.5-74.5 74.49 74.49 0 0 0 -74.49 74.5v65.6" fill="none" stroke="#88d9e2" stroke-miterlimit="10" stroke-width="22.9"/><path d="m3420.75 617.64v65.36a96 96 0 0 1 -96 96 96 96 0 0 1 -96-96v-532.06a96 96 0 0 0 -96-96 96 96 0 0 0 -96 96v65.36" fill="none" stroke="#efefef" stroke-miterlimit="10" stroke-width="22.9"/><path d="m3377.3 617.64v65.17a52.22 52.22 0 0 1 -52.4 52.19 52.23 52.23 0 0 1 -52-52.22v-531.84a139.49 139.49 0 0 0 -139.52-139.49 139.49 139.49 0 0 0 -139.49 139.49v65.36" fill="none" stroke="#ffc69f" stroke-miterlimit="10" stroke-width="22.9"/><path d="m3377.37 216.3v-65.36a139.49 139.49 0 0 1 139.49-139.49h1483.14" fill="none" stroke="#ffc69f" stroke-miterlimit="10" stroke-width="22.9"/><path d="m3442.56 216.3v-65.6a74.49 74.49 0 0 1 74.5-74.5h1482.94" fill="none" stroke="#88d9e2" stroke-miterlimit="10" stroke-width="22.9"/><path d="m3399.1 216.3v-65.48a117.67 117.67 0 0 1 117.67-117.67h1483.23" fill="none" stroke="#f98adf" stroke-miterlimit="10" stroke-width="22.9"/><path d="m3420.83 216.3v-65.36a96 96 0 0 1 96-96h1483.17" fill="none" stroke="#efefef" stroke-miterlimit="10" stroke-width="22.9"/><path d="m3464.28 216.3v-65.18a52.21 52.21 0 0 1 52.4-52.21h1483.32" fill="none" stroke="#e3f982" stroke-miterlimit="10" stroke-width="22.9"/><path d="m2209.86 577.3h118.86v40.41h-118.86z" fill="#c1c4c6"/><path d="m2593.78 577.3h118.86v40.41h-118.86z" fill="#c1c4c6"/><path d="m2977.69 577.3h118.86v40.41h-118.86z" fill="#c1c4c6"/><path d="m2209.86 216.3h118.86v40.41h-118.86z" fill="#c1c4c6"/><path d="m2593.78 216.3h118.86v40.41h-118.86z" fill="#c1c4c6"/><path d="m2977.69 216.3h118.86v40.41h-118.86z" fill="#c1c4c6"/><path d="m3361.61 216.3h118.86v40.41h-118.86z" fill="#c1c4c6"/><path d="m3361.61 577.3h118.86v40.41h-118.86z" fill="#c1c4c6"/><path d="m1692.71 256.63h82.9v28.84h-82.9z" fill="#58595b"/><path d="m1713.37 547.57h62.64v29.81h-62.64z" fill="#58595b"/><circle cx="2595.57" cy="324.88" fill="#ff92be" r="8.52"/><circle cx="2618.6" cy="324.88" fill="#ff92be" r="8.52"/><circle cx="2687.67" cy="324.88" fill="#ff92be" r="8.52"/><circle cx="2710.7" cy="324.88" fill="#ff92be" r="8.52"/><circle cx="2572.55" cy="347.91" fill="#ff92be" r="8.52"/><circle cx="2595.57" cy="347.91" fill="#ff92be" r="8.52"/><circle cx="2618.6" cy="347.91" fill="#ff92be" r="8.52"/><circle cx="2641.62" cy="347.91" fill="#ff92be" r="8.52"/><circle cx="2664.65" cy="347.91" fill="#ff92be" r="8.52"/><circle cx="2687.67" cy="347.91" fill="#ff92be" r="8.52"/><circle cx="2710.7" cy="347.91" fill="#ff92be" r="8.52"/><circle cx="2733.72" cy="347.91" fill="#ff92be" r="8.52"/><circle cx="2572.55" cy="370.93" fill="#ff92be" r="8.52"/><circle cx="2595.57" cy="370.93" fill="#ff92be" r="8.52"/><circle cx="2618.6" cy="370.93" fill="#ff92be" r="8.52"/><circle cx="2641.62" cy="370.93" fill="#ff92be" r="8.52"/><circle cx="2664.65" cy="370.93" fill="#ff92be" r="8.52"/><circle cx="2687.67" cy="370.93" fill="#ff92be" r="8.52"/><circle cx="2710.7" cy="370.93" fill="#ff92be" r="8.52"/><circle cx="2733.72" cy="370.93" fill="#ff92be" r="8.52"/><circle cx="2572.55" cy="393.95" fill="#ff92be" r="8.52"/><circle cx="2595.57" cy="393.95" fill="#ff92be" r="8.52"/><circle cx="2618.6" cy="393.95" fill="#ff92be" r="8.52"/><circle cx="2641.62" cy="393.95" fill="#ff92be" r="8.52"/><circle cx="2664.65" cy="393.95" fill="#ff92be" r="8.52"/><circle cx="2687.67" cy="393.95" fill="#ff92be" r="8.52"/><circle cx="2710.7" cy="393.95" fill="#ff92be" r="8.52"/><circle cx="2733.72" cy="393.95" fill="#ff92be" r="8.52"/><circle cx="2595.57" cy="416.98" fill="#ff92be" r="8.52"/><circle cx="2618.6" cy="416.98" fill="#ff92be" r="8.52"/><circle cx="2641.62" cy="416.98" fill="#ff92be" r="8.52"/><circle cx="2664.65" cy="416.98" fill="#ff92be" r="8.52"/><circle cx="2687.67" cy="416.98" fill="#ff92be" r="8.52"/><circle cx="2710.7" cy="416.98" fill="#ff92be" r="8.52"/><circle cx="2618.6" cy="440" fill="#ff92be" r="8.52"/><circle cx="2641.62" cy="440" fill="#ff92be" r="8.52"/><circle cx="2664.65" cy="440" fill="#ff92be" r="8.52"/><circle cx="2687.67" cy="440" fill="#ff92be" r="8.52"/><circle cx="2641.62" cy="463.03" fill="#ff92be" r="8.52"/><circle cx="2664.65" cy="463.03" fill="#ff92be" r="8.52"/><circle cx="2257.78" cy="324.88" fill="#bdff5f" r="7.74"/><circle cx="2280.8" cy="324.88" fill="#bdff5f" r="7.74"/><circle cx="2257.78" cy="347.91" fill="#bdff5f" r="7.74"/><circle cx="2280.8" cy="347.91" fill="#bdff5f" r="7.74"/><circle cx="2257.78" cy="370.93" fill="#bdff5f" r="7.74"/><circle cx="2280.8" cy="370.93" fill="#bdff5f" r="7.74"/><circle cx="2257.78" cy="393.95" fill="#bdff5f" r="7.74"/><circle cx="2280.8" cy="393.95" fill="#bdff5f" r="7.74"/><circle cx="2257.78" cy="416.98" fill="#bdff5f" r="7.74"/><circle cx="2280.8" cy="416.98" fill="#bdff5f" r="7.74"/><circle cx="2257.78" cy="440" fill="#bdff5f" r="7.74"/><circle cx="2280.8" cy="440" fill="#bdff5f" r="7.74"/><circle cx="3002.44" cy="324.88" fill="#94ffde" r="7.74"/><circle cx="3025.47" cy="324.88" fill="#94ffde" r="7.74"/><circle cx="3048.49" cy="324.88" fill="#94ffde" r="7.74"/><circle cx="2979.42" cy="347.91" fill="#94ffde" r="7.74"/><circle cx="3071.52" cy="347.91" fill="#94ffde" r="7.74"/><circle cx="2956.39" cy="370.93" fill="#94ffde" r="7.74"/><circle cx="3094.54" cy="370.93" fill="#94ffde" r="7.74"/><circle cx="2956.39" cy="393.95" fill="#94ffde" r="7.74"/><circle cx="3002.44" cy="393.95" fill="#94ffde" r="7.74"/><circle cx="3025.47" cy="393.95" fill="#94ffde" r="7.74"/><circle cx="3048.49" cy="393.95" fill="#94ffde" r="7.74"/><circle cx="3117.57" cy="393.95" fill="#94ffde" r="7.74"/><circle cx="2956.39" cy="416.98" fill="#94ffde" r="7.74"/><circle cx="3094.54" cy="416.98" fill="#94ffde" r="7.74"/><circle cx="2979.42" cy="440" fill="#94ffde" r="7.74"/><circle cx="3071.52" cy="440" fill="#94ffde" r="7.74"/><circle cx="3002.44" cy="463.03" fill="#94ffde" r="7.74"/><circle cx="3025.47" cy="463.03" fill="#94ffde" r="7.74"/><circle cx="3048.49" cy="463.03" fill="#94ffde" r="7.74"/><circle cx="3455.29" cy="463.03" fill="#94ffde" r="7.74"/><circle cx="3432.27" cy="463.03" fill="#94ffde" r="7.74"/><circle cx="3409.24" cy="463.03" fill="#94ffde" r="7.74"/><circle cx="3478.32" cy="440" fill="#94ffde" r="7.74"/><circle cx="3386.22" cy="440" fill="#94ffde" r="7.74"/><circle cx="3501.34" cy="416.98" fill="#94ffde" r="7.74"/><circle cx="3363.19" cy="416.98" fill="#94ffde" r="7.74"/><circle cx="3501.34" cy="393.95" fill="#94ffde" r="7.74"/><circle cx="3455.29" cy="393.95" fill="#94ffde" r="7.74"/><circle cx="3432.27" cy="393.95" fill="#94ffde" r="7.74"/><circle cx="3432.27" cy="370.93" fill="#94ffde" r="7.74"/><circle cx="3432.27" cy="416.98" fill="#94ffde" r="7.74"/><circle cx="3409.24" cy="393.95" fill="#94ffde" r="7.74"/><circle cx="3340.17" cy="393.95" fill="#94ffde" r="7.74"/><circle cx="3501.34" cy="370.93" fill="#94ffde" r="7.74"/><circle cx="3363.19" cy="370.93" fill="#94ffde" r="7.74"/><circle cx="3478.32" cy="347.91" fill="#94ffde" r="7.74"/><circle cx="3386.22" cy="347.91" fill="#94ffde" r="7.74"/><circle cx="3455.29" cy="324.88" fill="#94ffde" r="7.74"/><circle cx="3432.27" cy="324.88" fill="#94ffde" r="7.74"/><circle cx="3409.24" cy="324.88" fill="#94ffde" r="7.74"/><path d="m0 11.45h259.65a0 0 0 0 1 0 0v778.5a32.54 32.54 0 0 1 -32.54 32.54h-227.11a0 0 0 0 1 0 0v-811a0 0 0 0 1 0-.04z" fill="#e3e4e5"/><path d="m0 11.45h259.65v32.38h-259.65z" fill="#c9caca"/></svg>