<svg viewBox="0 0 578.5 314.65" xmlns="http://www.w3.org/2000/svg"><path d="m277.9 14.04h22.71v578.5h-22.71z" fill="#cdcfd1" transform="matrix(.00017453 -.99999998 .99999998 .00017453 -14.1 592.48)"/><path d="m143.29-99.79h291.94v491.51h-291.94z" fill="#414042" transform="matrix(0 -1 1 0 143.29 435.23)"/><path d="m161.95-81.68h254.61v455.29h-254.61z" fill="#43c7dd" transform="matrix(0 -1 1 0 143.29 435.23)"/><path d="m174.21-20h28.46v174.2h-28.46z" fill="#78d6cf" transform="matrix(0 -1 1 0 121.34 255.54)"/><path d="m375.84-20h28.46v174.2h-28.46z" fill="#cdcfd1" transform="matrix(0 -1 1 0 322.97 457.17)"/><path d="m136.39 46.28h104.1v174.2h-104.1z" fill="#fff" transform="matrix(0 -1 1 0 55.06 321.82)"/><path d="m181.5 36.88h13.88v143.37h-13.88z" fill="#cdcfd1" transform="matrix(0 -1 1 0 79.87 297.01)"/><path d="m145.65 97.53h13.88v71.69h-13.88z" fill="#ffc397" transform="matrix(0 -1 1 0 19.22 285.97)"/><path d="m145.65 122.34h13.88v71.69h-13.88z" fill="#ffc397" transform="matrix(0 -1 1 0 -5.59 310.78)"/><path d="m311.2 73.1h157.74v174.2h-157.74z" fill="#fff" transform="matrix(0 -1 1 0 229.87 550.27)"/><path d="m161.62 125.15h53.64v174.2h-53.64z" fill="#414042" transform="matrix(0 -1 1 0 -23.81 400.69)"/></svg>