<svg viewBox="0 0 469.95 230.66" xmlns="http://www.w3.org/2000/svg"><rect fill="#78d6cf" height="230.66" rx="17.92" width="469.95"/><circle cx="20.05" cy="19.93" fill="#fff" r="13.19"/><circle cx="449.9" cy="19.93" fill="#fff" r="13.19"/><circle cx="20.05" cy="210.73" fill="#fff" r="13.19"/><circle cx="449.9" cy="210.73" fill="#fff" r="13.19"/><g fill="#e5dbc6"><path d="m41.27 11.85a6.77 6.77 0 0 0 13.54 0v-11.85h-13.54z"/><path d="m63.63 11.85a6.77 6.77 0 1 0 13.53 0v-11.85h-13.53z"/><path d="m86 11.85a6.77 6.77 0 1 0 13.54 0v-11.85h-13.54z"/><path d="m108.34 11.85a6.77 6.77 0 0 0 13.54 0v-11.85h-13.54z"/><path d="m130.7 11.85a6.77 6.77 0 0 0 13.54 0v-11.85h-13.54z"/><path d="m153.06 11.85a6.77 6.77 0 1 0 13.54 0v-11.85h-13.54z"/><path d="m175.42 11.85a6.77 6.77 0 1 0 13.53 0v-11.85h-13.53z"/><path d="m197.77 11.85a6.77 6.77 0 0 0 13.54 0v-11.85h-13.54z"/><path d="m220.13 11.85a6.77 6.77 0 1 0 13.54 0v-11.85h-13.54z"/><path d="m242.49 11.85a6.77 6.77 0 1 0 13.54 0v-11.85h-13.54z"/><path d="m264.85 11.85a6.77 6.77 0 1 0 13.54 0v-11.85h-13.54z"/><path d="m287.21 11.85a6.77 6.77 0 1 0 13.53 0v-11.85h-13.53z"/><path d="m309.56 11.85a6.77 6.77 0 0 0 13.54 0v-11.85h-13.54z"/><path d="m331.92 11.85a6.77 6.77 0 1 0 13.54 0v-11.85h-13.54z"/><path d="m354.28 11.85a6.77 6.77 0 1 0 13.54 0v-11.85h-13.54z"/><path d="m376.64 11.85a6.77 6.77 0 1 0 13.54 0v-11.85h-13.54z"/></g><path d="m47.6 45.59h376.27v139.47h-376.27z" fill="#414042"/><path d="m469.82 135.92-45.95 16.86v-74.9l45.95 16.85z" fill="#aaacae"/></svg>