<svg viewBox="0 0 267.18 384.43" xmlns="http://www.w3.org/2000/svg"><path d="m133.84 0c-73.61-.13-133.84 61.12-133.84 134.74v153.33a30.51 30.51 0 0 0 30.5 30.51h206.18a30.5 30.5 0 0 0 30.5-30.51v-154.48a133.58 133.58 0 0 0 -133.34-133.59z" fill="#ff9b73"/><circle cx="133.59" cy="133.59" fill="#7c7d7f" r="104.26"/><path d="m133.59 196.22a62.65 62.65 0 0 0 59.09-41.82h-118.17a62.65 62.65 0 0 0 59.08 41.82z" fill="#fff"/><path d="m133.59 71a62.66 62.66 0 0 0 -59.08 41.83h118.17a62.66 62.66 0 0 0 -59.09-41.83z" fill="#fff"/><path d="m192.68 112.79h-118.17a62.74 62.74 0 0 0 0 41.61h118.17a62.91 62.91 0 0 0 0-41.61z" fill="#d6d6d6"/><g fill="#fff"><circle cx="62.04" cy="275.75" r="21.63"/><circle cx="133.59" cy="275.75" r="21.63"/><circle cx="205.14" cy="275.75" r="21.63"/></g><path d="m74.22 344.93v-26.35h-24.36v26.35a21.63 21.63 0 1 0 24.36 0z" fill="#d6d6d6"/><path d="m145.77 344.93v-26.35h-24.36v26.35a21.63 21.63 0 1 0 24.36 0z" fill="#d6d6d6"/><path d="m217.32 344.93v-26.35h-24.32v26.35a21.63 21.63 0 1 0 24.36 0z" fill="#d6d6d6"/></svg>