<svg viewBox="0 0 152.98 224.9" xmlns="http://www.w3.org/2000/svg"><path d="m0 35.96h152.98v152.98h-152.98z" fill="#cdcfd1" transform="matrix(0 -1 1 0 -35.96 188.94)"/><circle cx="76.49" cy="112.45" fill="#414042" r="42.47"/><g fill="#a7a9ac"><circle cx="24.44" cy="60.4" r="11.85"/><circle cx="128.54" cy="60.4" r="11.85"/><circle cx="24.44" cy="164.5" r="11.85"/><circle cx="128.54" cy="164.5" r="11.85"/></g><path d="m7.56-7.56h19.7v34.81h-19.7z" fill="#c1c4c6" transform="matrix(0 -1 1 0 7.56 27.25)"/><path d="m125.72-7.56h19.7v34.81h-19.7z" fill="#c1c4c6" transform="matrix(0 -1 1 0 125.72 145.42)"/><path d="m7.56 197.64h19.7v34.81h-19.7z" fill="#c1c4c6" transform="matrix(0 -1 1 0 -197.64 232.46)"/><path d="m125.72 197.64h19.7v34.81h-19.7z" fill="#c1c4c6" transform="matrix(0 -1 1 0 -79.48 350.62)"/></svg>