<svg viewBox="0 0 459.14 101.82" xmlns="http://www.w3.org/2000/svg"><path d="m0 37.09h459.14v27.65h-459.14z" fill="#d6d6d6"/><path d="m342.29 101.82h-33.18a48.3 48.3 0 0 1 -20.11-4.37 48.3 48.3 0 0 0 -20-4.37h-67.9a48.3 48.3 0 0 0 -20.1 4.37 48.3 48.3 0 0 1 -20.08 4.37h-33.16a48.32 48.32 0 0 1 -48.32-48.32v-5.18a48.32 48.32 0 0 1 48.32-48.32h33.18a48.3 48.3 0 0 1 20.06 4.37 48.3 48.3 0 0 0 20.1 4.37h67.9a48.3 48.3 0 0 0 20-4.37 48.3 48.3 0 0 1 20.11-4.37h33.18a48.33 48.33 0 0 1 48.33 48.32v5.18a48.32 48.32 0 0 1 -48.33 48.32z" fill="#ffe4d2"/><path d="m127.67 0h23.51v101.82h-23.51z" fill="#fc9956"/><path d="m181.13 4.42v93a48.42 48.42 0 0 1 20-4.32h3.54v-84.36h-3.57a48.42 48.42 0 0 1 -19.97-4.32z" fill="#fc9956"/><path d="m234.59 8.74h23.51v84.34h-23.51z" fill="#a37454"/><path d="m317.93 0h23.51v101.82h-23.51z" fill="#ccb69f"/></svg>