<svg viewBox="0 0 387.78 387.78" xmlns="http://www.w3.org/2000/svg"><path d="m0 152.24h387.78v83.3h-387.78z" fill="#ddd" transform="matrix(0 1 -1 0 387.78 0)"/><circle cx="193.89" cy="115.79" fill="#6d6e71" r="13.86"/><g fill="#fff"><circle cx="193.89" cy="73.55" r="13.86"/><circle cx="193.89" cy="31.31" r="13.86"/><circle cx="193.89" cy="356.47" r="13.86"/><circle cx="193.89" cy="314.23" r="13.86"/></g><circle cx="193.89" cy="271.98" fill="#6d6e71" r="13.86"/><path d="m0 152.55h387.78v83.3h-387.78z" fill="#ddd"/><circle cx="115.79" cy="194.2" fill="#6d6e71" r="13.86"/><circle cx="73.55" cy="194.2" fill="#fff" r="13.86"/><circle cx="31.31" cy="194.2" fill="#fff" r="13.86"/><circle cx="356.47" cy="194.2" fill="#fff" r="13.86"/><circle cx="314.23" cy="194.2" fill="#fff" r="13.86"/><circle cx="271.98" cy="194.2" fill="#6d6e71" r="13.86"/><circle cx="193.89" cy="194.2" fill="#ddd" r="59.81"/><circle cx="193.89" cy="194.2" fill="#e6e7e8" r="41.65"/><circle cx="193.89" cy="194.2" fill="#a7a9ac" r="25.77"/></svg>