<svg viewBox="0 0 387.78 486.07" xmlns="http://www.w3.org/2000/svg"><path d="m-49.15 136.55h486.07v212.96h-486.07z" fill="#414042" transform="matrix(0 -1 1 0 -49.15 436.92)"/><path d="m153.99-66.58h79.79v212.96h-79.79z" fill="#58595b" transform="matrix(0 -1 1 0 153.99 233.78)"/><path d="m176.06 39.88h35.65v212.96h-35.65z" fill="#58595b" transform="matrix(0 -1 1 0 47.52 340.25)"/><path d="m153.99 339.69h79.79v212.96h-79.79z" fill="#58595b" transform="matrix(0 -1 1 0 -252.29 640.06)"/><circle cx="193.89" cy="39.9" fill="#fff" r="23.15"/><circle cx="193.89" cy="292.27" fill="#58595b" r="88.93"/><path d="m0 250.62h387.78v83.3h-387.78z" fill="#ddd"/><circle cx="115.79" cy="292.27" fill="#6d6e71" r="13.86"/><g fill="#fff"><circle cx="73.55" cy="292.27" r="13.86"/><circle cx="31.31" cy="292.27" r="13.86"/><circle cx="356.47" cy="292.27" r="13.86"/><circle cx="314.23" cy="292.27" r="13.86"/></g><circle cx="271.98" cy="292.27" fill="#6d6e71" r="13.86"/><circle cx="193.89" cy="292.27" fill="#ddd" r="59.81"/><circle cx="193.89" cy="292.27" fill="#e6e7e8" r="41.65"/><circle cx="193.89" cy="292.27" fill="#a7a9ac" r="25.77"/></svg>