<svg viewBox="0 0 218.49 384.79" xmlns="http://www.w3.org/2000/svg"><path d="m31.69 0h155.11v384.79h-155.11z" fill="#414042" transform="matrix(-1 0 0 -1 218.49 384.79)"/><g fill="#d6d6d6"><path d="m0 20.51h19.76v20.25h-19.76z" transform="matrix(-1 0 0 -1 19.76 61.28)"/><path d="m0 60.99h19.76v20.25h-19.76z" transform="matrix(-1 0 0 -1 19.76 142.22)"/><path d="m0 101.46h19.76v20.25h-19.76z" transform="matrix(-1 0 0 -1 19.76 223.17)"/><path d="m0 141.93h19.76v20.25h-19.76z" transform="matrix(-1 0 0 -1 19.76 304.11)"/><path d="m0 182.4h19.76v20.25h-19.76z" transform="matrix(-1 0 0 -1 19.76 385.05)"/><path d="m0 222.87h19.76v20.25h-19.76z" transform="matrix(-1 0 0 -1 19.76 466)"/><path d="m0 263.34h19.76v20.25h-19.76z" transform="matrix(-1 0 0 -1 19.76 546.94)"/><path d="m0 303.82h19.76v20.25h-19.76z" transform="matrix(-1 0 0 -1 19.76 627.88)"/><path d="m0 344.29h19.76v20.25h-19.76z" transform="matrix(-1 0 0 -1 19.76 708.83)"/><path d="m198.73 20.51h19.76v20.25h-19.76z" transform="matrix(-1 0 0 -1 417.22 61.28)"/><path d="m198.73 60.99h19.76v20.25h-19.76z" transform="matrix(-1 0 0 -1 417.22 142.22)"/><path d="m198.73 101.46h19.76v20.25h-19.76z" transform="matrix(-1 0 0 -1 417.22 223.17)"/><path d="m198.73 141.93h19.76v20.25h-19.76z" transform="matrix(-1 0 0 -1 417.22 304.11)"/><path d="m198.73 182.4h19.76v20.25h-19.76z" transform="matrix(-1 0 0 -1 417.22 385.05)"/><path d="m198.73 222.87h19.76v20.25h-19.76z" transform="matrix(-1 0 0 -1 417.22 466)"/><path d="m198.73 263.34h19.76v20.25h-19.76z" transform="matrix(-1 0 0 -1 417.22 546.94)"/><path d="m198.73 303.82h19.76v20.25h-19.76z" transform="matrix(-1 0 0 -1 417.22 627.88)"/><path d="m198.73 344.29h19.76v20.25h-19.76z" transform="matrix(-1 0 0 -1 417.22 708.83)"/></g><circle cx="109.24" cy="313.94" fill="#58595b" r="39.15"/></svg>