<svg viewBox="0 0 603.17 107.9" xmlns="http://www.w3.org/2000/svg"><path d="m276.81 36.33h211.59v35.24h-211.59z" fill="#aaacae" transform="matrix(-1 0 0 -1 765.2 107.9)"/><path d="m207.84 24.2h68.96v59.51h-68.96z" fill="#808184" transform="matrix(-1 0 0 -1 484.65 107.9)"/><path d="m75.23 0h132.61v107.9h-132.61z" fill="#58595b" transform="matrix(-1 0 0 -1 283.07 107.9)"/><path d="m0 11.5h75.23v84.9h-75.23z" fill="#c9caca" transform="matrix(-1 0 0 -1 75.23 107.9)"/><path d="m488.27 24.12h73.31v59.65h-73.31z" fill="#808184"/><path d="m561.58 30.48h41.59v46.93h-41.59z" fill="#c9caca"/><g fill="#aaacae"><path d="m573.21 35.36h18.34v7.47h-18.34z"/><path d="m573.21 65.07h18.34v7.47h-18.34z"/><path d="m29.93 25.24h20.57v20.57h-20.57z" transform="matrix(0 -1 1 0 4.68 75.74)"/><path d="m29.93 62.09h20.57v20.57h-20.57z" transform="matrix(0 -1 1 0 -32.16 112.59)"/></g></svg>